<svg xmlns:svgjs="http://svgjs.dev/svgjs" xmlns:xlink="http://www.w3.org/1999/xlink" xmlns="http://www.w3.org/2000/svg" version="1.1" height="78.01066149772593" width="395.52"><g><svg viewBox="0 0 493.4612021861239 97.32816243427035" height="78.01066149772593" width="395.52"><g><rect width="3.759711240153216" height="70.77771580784493" x="84.33931492462719" y="13.275223313212713" fill="#6f605b" opacity="1" stroke-width="0" stroke="transparent" fill-opacity="1" class="rect-r-0" data-fill-palette-color="primary" rx="1%" id="r-0" data-palette-color="#6f605b"></rect></g><g transform="matrix(1,0,0,1,97.9412021861239,13.451287282883968)"><svg viewBox="0 0 395.52 70.42558786850242" height="70.42558786850242" width="395.52"><g id="textblocktransform"><svg viewBox="0 0 395.52 70.42558786850242" height="70.42558786850242" width="395.52" id="textblock"><g><svg viewBox="0 0 395.52 41.69070986183897" height="41.69070986183897" width="395.52"><g transform="matrix(1,0,0,1,0,0)"><svg width="395.52" viewBox="1.7999999523162842 -33.5 419.75 44.25" height="41.69070986183897" data-palette-color="#6f605b"><path d="M22.5-8.85L22.5-8.85Q22.5-6.35 21.5-4.58 20.5-2.8 18.93-1.7 17.35-0.6 15.38-0.1 13.4 0.4 11.45 0.4L11.45 0.4Q9.45 0.4 8 0 6.55-0.4 5.35-0.75L5.35-0.75Q4.55-1 3.9-1.18 3.25-1.35 2.6-1.35L2.6-1.35 2.6-7.05 3.1-7.05Q3.1-5.15 4.08-4.03 5.05-2.9 6.35-2.3 7.65-1.7 8.95-1.53 10.25-1.35 10.85-1.35L10.85-1.35Q13-1.35 14.55-1.98 16.1-2.6 17.1-3.63 18.1-4.65 18.57-5.9 19.05-7.15 19.05-8.45L19.05-8.45Q19.05-10.1 18.35-11.23 17.65-12.35 16.53-13.2 15.4-14.05 13.95-14.65 12.5-15.25 11-15.85L11-15.85Q9.3-16.5 7.65-17.2 6-17.9 4.7-18.93 3.4-19.95 2.6-21.38 1.8-22.8 1.8-24.9L1.8-24.9Q1.8-27.1 2.65-28.73 3.5-30.35 4.93-31.4 6.35-32.45 8.18-32.98 10-33.5 11.9-33.5L11.9-33.5Q13.2-33.5 14.35-33.33 15.5-33.15 16.55-32.9L16.55-32.9Q17.4-32.7 18.2-32.58 19-32.45 19.75-32.45L19.75-32.45 19.75-27.3 19.25-27.3Q19.15-29.9 17.2-30.83 15.25-31.75 11.8-31.75L11.8-31.75Q9.8-31.75 8.53-31.08 7.25-30.4 6.5-29.43 5.75-28.45 5.48-27.33 5.2-26.2 5.2-25.35L5.2-25.35Q5.2-23.95 5.83-22.95 6.45-21.95 7.5-21.2 8.55-20.45 9.93-19.85 11.3-19.25 12.8-18.7L12.8-18.7Q14.5-18.05 16.25-17.3 18-16.55 19.38-15.45 20.75-14.35 21.63-12.75 22.5-11.15 22.5-8.85ZM46.55-21.55L46.55-3.25Q46.55-2.9 46.65-2.43 46.75-1.95 46.92-1.53 47.1-1.1 47.4-0.8 47.7-0.5 48.1-0.5L48.1-0.5 48.1 0 43.25 0 43.25-2.75Q42.5-1.65 41.05-0.6 39.6 0.45 37.3 0.45L37.3 0.45Q34.4 0.45 32.7-0.55 31-1.55 30.1-3.1 29.2-4.65 28.95-6.48 28.7-8.3 28.7-9.9L28.7-9.9 28.7-17.05Q28.7-17.5 28.67-17.93 28.65-18.35 28.47-18.7 28.3-19.05 27.95-19.28 27.6-19.5 26.95-19.5L26.95-19.5 26.95-19.95 32-21.55 32-8.8Q32-5 33.65-3.2 35.3-1.4 37.7-1.4L37.7-1.4Q39-1.4 40.02-1.98 41.05-2.55 41.77-3.35 42.5-4.15 42.87-5 43.25-5.85 43.25-6.4L43.25-6.4 43.25-17.05Q43.25-17.5 43.22-17.93 43.2-18.35 43.02-18.7 42.85-19.05 42.5-19.28 42.15-19.5 41.5-19.5L41.5-19.5 41.5-19.95 46.55-21.55ZM71.4-5.7L71.4-1.8Q71-1.8 70.65-1.63 70.3-1.45 69.85-1.2L69.85-1.2Q69-0.7 67.7-0.18 66.4 0.35 64.3 0.35L64.3 0.35Q61.75 0.35 59.57-0.48 57.4-1.3 55.82-2.78 54.25-4.25 53.37-6.23 52.5-8.2 52.5-10.5L52.5-10.5Q52.5-12.65 53.27-14.6 54.05-16.55 55.5-18.05 56.95-19.55 59.07-20.45 61.2-21.35 63.9-21.35L63.9-21.35Q65.75-21.35 66.9-20.93 68.05-20.5 68.85-20.1L68.85-20.1Q69.3-19.85 69.72-19.7 70.15-19.55 70.6-19.55L70.6-19.55 70.6-15.75 70.1-15.75Q69.85-16.7 69.2-17.43 68.55-18.15 67.7-18.65 66.85-19.15 65.85-19.4 64.85-19.65 63.9-19.65L63.9-19.65Q61.85-19.65 60.3-18.93 58.75-18.2 57.75-17.03 56.75-15.85 56.25-14.35 55.75-12.85 55.75-11.25L55.75-11.25Q55.75-9.4 56.35-7.63 56.95-5.85 58.07-4.45 59.2-3.05 60.8-2.2 62.4-1.35 64.4-1.35L64.4-1.35Q65.8-1.35 66.97-1.75 68.15-2.15 68.97-2.8 69.8-3.45 70.3-4.23 70.8-5 70.9-5.7L70.9-5.7 71.4-5.7ZM93.19-5.7L93.19-1.8Q92.79-1.8 92.44-1.63 92.09-1.45 91.64-1.2L91.64-1.2Q90.79-0.7 89.49-0.18 88.19 0.35 86.09 0.35L86.09 0.35Q83.54 0.35 81.37-0.48 79.19-1.3 77.62-2.78 76.04-4.25 75.17-6.23 74.29-8.2 74.29-10.5L74.29-10.5Q74.29-12.65 75.07-14.6 75.84-16.55 77.29-18.05 78.74-19.55 80.87-20.45 82.99-21.35 85.69-21.35L85.69-21.35Q87.54-21.35 88.69-20.93 89.84-20.5 90.64-20.1L90.64-20.1Q91.09-19.85 91.52-19.7 91.94-19.55 92.39-19.55L92.39-19.55 92.39-15.75 91.89-15.75Q91.64-16.7 90.99-17.43 90.34-18.15 89.49-18.65 88.64-19.15 87.64-19.4 86.64-19.65 85.69-19.65L85.69-19.65Q83.64-19.65 82.09-18.93 80.54-18.2 79.54-17.03 78.54-15.85 78.04-14.35 77.54-12.85 77.54-11.25L77.54-11.25Q77.54-9.4 78.14-7.63 78.74-5.85 79.87-4.45 80.99-3.05 82.59-2.2 84.19-1.35 86.19-1.35L86.19-1.35Q87.59-1.35 88.77-1.75 89.94-2.15 90.77-2.8 91.59-3.45 92.09-4.23 92.59-5 92.69-5.7L92.69-5.7 93.19-5.7ZM116.64-10.1L99.29-10.1Q99.49-8.35 100.14-6.78 100.79-5.2 101.87-4 102.94-2.8 104.49-2.08 106.04-1.35 108.09-1.35L108.09-1.35Q109.19-1.35 110.42-1.68 111.64-2 112.69-2.6 113.74-3.2 114.57-4.08 115.39-4.95 115.69-6.05L115.69-6.05 116.14-6.05 116.14-2.3Q115.84-2.3 115.47-2.1 115.09-1.9 114.59-1.6L114.59-1.6Q113.59-1 111.89-0.33 110.19 0.35 107.39 0.35L107.39 0.35Q105.14 0.35 103.12-0.3 101.09-0.95 99.54-2.3 97.99-3.65 97.07-5.75 96.14-7.85 96.14-10.75L96.14-10.75Q96.14-12.6 96.77-14.5 97.39-16.4 98.67-17.93 99.94-19.45 101.94-20.4 103.94-21.35 106.74-21.35L106.74-21.35Q109.24-21.35 111.12-20.5 112.99-19.65 114.22-18.15 115.44-16.65 116.04-14.6 116.64-12.55 116.64-10.1L116.64-10.1ZM106.54-19.7L106.54-19.7Q104.79-19.7 103.52-19 102.24-18.3 101.34-17.2 100.44-16.1 99.94-14.7 99.44-13.3 99.29-11.9L99.29-11.9 113.54-11.9Q113.49-13.35 113.02-14.75 112.54-16.15 111.69-17.25 110.84-18.35 109.54-19.03 108.24-19.7 106.54-19.7ZM135.59-5.7L135.59-5.7Q135.59-4.4 134.94-3.3 134.29-2.2 133.16-1.38 132.04-0.55 130.54-0.08 129.04 0.4 127.29 0.4L127.29 0.4Q125.14 0.4 123.79-0.18 122.44-0.75 121.49-1.35L121.49-1.35Q120.84-1.75 120.29-2.02 119.74-2.3 119.09-2.3L119.09-2.3 119.09-6.1 119.59-6.1Q119.74-5.4 120.46-4.58 121.19-3.75 122.21-3.05 123.24-2.35 124.46-1.88 125.69-1.4 126.94-1.4L126.94-1.4Q127.84-1.4 128.79-1.6 129.74-1.8 130.51-2.25 131.29-2.7 131.81-3.38 132.34-4.05 132.34-5L132.34-5Q132.34-5.95 131.79-6.65 131.24-7.35 130.39-7.88 129.54-8.4 128.44-8.8 127.34-9.2 126.24-9.55L126.24-9.55Q124.94-9.95 123.61-10.45 122.29-10.95 121.24-11.63 120.19-12.3 119.54-13.28 118.89-14.25 118.89-15.6L118.89-15.6Q118.89-16.75 119.31-17.8 119.74-18.85 120.71-19.63 121.69-20.4 123.24-20.88 124.79-21.35 126.99-21.35L126.99-21.35Q128.94-21.35 130.01-21.03 131.09-20.7 131.79-20.35L131.79-20.35Q132.24-20.1 132.69-19.98 133.14-19.85 133.69-19.85L133.69-19.85 133.69-16.35 133.29-16.35Q132.39-18 130.54-18.85 128.69-19.7 126.74-19.7L126.74-19.7Q125.49-19.7 124.59-19.38 123.69-19.05 123.11-18.57 122.54-18.1 122.26-17.5 121.99-16.9 121.99-16.3L121.99-16.3Q121.99-15.45 122.46-14.85 122.94-14.25 123.76-13.8 124.59-13.35 125.61-12.95 126.64-12.55 127.79-12.2L127.79-12.2Q129.19-11.75 130.59-11.23 131.99-10.7 133.09-9.95 134.19-9.2 134.89-8.18 135.59-7.15 135.59-5.7ZM156.14-5.7L156.14-5.7Q156.14-4.4 155.49-3.3 154.84-2.2 153.71-1.38 152.59-0.55 151.09-0.08 149.59 0.4 147.84 0.4L147.84 0.4Q145.69 0.4 144.34-0.18 142.99-0.75 142.04-1.35L142.04-1.35Q141.39-1.75 140.84-2.02 140.29-2.3 139.64-2.3L139.64-2.3 139.64-6.1 140.14-6.1Q140.29-5.4 141.01-4.58 141.74-3.75 142.76-3.05 143.79-2.35 145.01-1.88 146.24-1.4 147.49-1.4L147.49-1.4Q148.39-1.4 149.34-1.6 150.29-1.8 151.06-2.25 151.84-2.7 152.36-3.38 152.89-4.05 152.89-5L152.89-5Q152.89-5.95 152.34-6.65 151.79-7.35 150.94-7.88 150.09-8.4 148.99-8.8 147.89-9.2 146.79-9.55L146.79-9.55Q145.49-9.95 144.16-10.45 142.84-10.95 141.79-11.63 140.74-12.3 140.09-13.28 139.44-14.25 139.44-15.6L139.44-15.6Q139.44-16.75 139.86-17.8 140.29-18.85 141.26-19.63 142.24-20.4 143.79-20.88 145.34-21.35 147.54-21.35L147.54-21.35Q149.49-21.35 150.56-21.03 151.64-20.7 152.34-20.35L152.34-20.35Q152.79-20.1 153.24-19.98 153.69-19.85 154.24-19.85L154.24-19.85 154.24-16.35 153.84-16.35Q152.94-18 151.09-18.85 149.24-19.7 147.29-19.7L147.29-19.7Q146.04-19.7 145.14-19.38 144.24-19.05 143.66-18.57 143.09-18.1 142.81-17.5 142.54-16.9 142.54-16.3L142.54-16.3Q142.54-15.45 143.01-14.85 143.49-14.25 144.31-13.8 145.14-13.35 146.16-12.95 147.19-12.55 148.34-12.2L148.34-12.2Q149.74-11.75 151.14-11.23 152.54-10.7 153.64-9.95 154.74-9.2 155.44-8.18 156.14-7.15 156.14-5.7ZM173.38-32.5L173.38-33 180.48-33Q186.03-33 188.91-30.88 191.78-28.75 191.78-24.85L191.78-24.85Q191.78-22.75 190.78-21.1 189.78-19.45 188.16-18.32 186.53-17.2 184.51-16.6 182.48-16 180.48-16L180.48-16 178.58-16 178.58-3.25Q178.58-2.85 178.68-2.38 178.78-1.9 179.01-1.5 179.23-1.1 179.51-0.8 179.78-0.5 180.18-0.5L180.18-0.5 180.43-0.5 180.43 0 173.38 0 173.38-0.5 173.63-0.5Q173.98-0.5 174.28-0.8 174.58-1.1 174.78-1.5 174.98-1.9 175.08-2.38 175.18-2.85 175.18-3.25L175.18-3.25 175.18-29.9Q175.18-30.6 174.78-31.5 174.38-32.4 173.63-32.5L173.63-32.5 173.38-32.5ZM179.28-31.25L178.58-31.25 178.58-17.75 180.08-17.75Q182.08-17.75 183.66-18.3 185.23-18.85 186.28-19.75 187.33-20.65 187.88-21.8 188.43-22.95 188.43-24.15L188.43-24.15Q188.43-25.6 187.96-26.88 187.48-28.15 186.41-29.13 185.33-30.1 183.58-30.68 181.83-31.25 179.28-31.25L179.28-31.25ZM200.88 0.35L200.88 0.35Q198.38 0.35 196.38-0.48 194.38-1.3 192.95-2.73 191.53-4.15 190.75-6.1 189.98-8.05 189.98-10.35L189.98-10.35Q189.98-12.8 190.83-14.83 191.68-16.85 193.18-18.3 194.68-19.75 196.73-20.55 198.78-21.35 201.18-21.35L201.18-21.35Q203.58-21.35 205.58-20.58 207.58-19.8 209.03-18.4 210.48-17 211.28-15.08 212.08-13.15 212.08-10.85L212.08-10.85Q212.08-8.7 211.35-6.68 210.63-4.65 209.2-3.1 207.78-1.55 205.7-0.6 203.63 0.35 200.88 0.35ZM200.58-19.7L200.58-19.7Q198.78-19.6 197.4-18.82 196.03-18.05 195.1-16.82 194.18-15.6 193.7-14.05 193.23-12.5 193.23-10.9L193.23-10.9Q193.23-9.05 193.8-7.33 194.38-5.6 195.45-4.25 196.53-2.9 198.03-2.1 199.53-1.3 201.38-1.3L201.38-1.3Q203.23-1.3 204.65-2.1 206.08-2.9 207.03-4.17 207.98-5.45 208.45-7.05 208.93-8.65 208.93-10.25L208.93-10.25Q208.93-11.9 208.43-13.58 207.93-15.25 206.88-16.63 205.83-18 204.25-18.85 202.68-19.7 200.58-19.7ZM223.73 0L217.23 0 217.23-0.5Q217.63-0.5 217.93-0.8 218.23-1.1 218.43-1.5 218.63-1.9 218.73-2.38 218.83-2.85 218.83-3.25L218.83-3.25 218.83-17.1Q218.83-17.95 218.58-18.73 218.33-19.5 217.13-19.55L217.13-19.55 217.13-20 222.13-21.6 222.13-3.25Q222.13-2.85 222.23-2.38 222.33-1.9 222.53-1.5 222.73-1.1 223.03-0.8 223.33-0.5 223.73-0.5L223.73-0.5 223.73 0ZM217.48-26.4L217.48-26.4Q217.48-27.4 218.15-28.1 218.83-28.8 219.83-28.8L219.83-28.8Q220.83-28.8 221.53-28.1 222.23-27.4 222.23-26.4L222.23-26.4Q222.23-25.4 221.53-24.75 220.83-24.1 219.83-24.1L219.83-24.1Q218.83-24.1 218.15-24.75 217.48-25.4 217.48-26.4ZM249.17-12.9L249.17-3.25Q249.17-2.85 249.27-2.38 249.37-1.9 249.6-1.5 249.82-1.1 250.1-0.8 250.37-0.5 250.77-0.5L250.77-0.5 250.77 0 244.32 0 244.32-0.5Q244.67-0.5 244.97-0.8 245.27-1.1 245.5-1.5 245.72-1.9 245.82-2.38 245.92-2.85 245.92-3.25L245.92-3.25 245.92-12.55Q245.92-14.35 245.42-15.7 244.92-17.05 244.07-17.95 243.22-18.85 242.15-19.28 241.07-19.7 239.97-19.7L239.97-19.7Q238.87-19.7 237.8-19.25 236.72-18.8 235.9-18.07 235.07-17.35 234.55-16.38 234.02-15.4 234.02-14.35L234.02-14.35 234.02-3.25Q234.02-2.85 234.12-2.38 234.22-1.9 234.45-1.5 234.67-1.1 234.95-0.8 235.22-0.5 235.62-0.5L235.62-0.5 235.62 0 229.12 0 229.12-0.5Q229.47-0.5 229.77-0.8 230.07-1.1 230.3-1.5 230.52-1.9 230.62-2.38 230.72-2.85 230.72-3.25L230.72-3.25 230.72-17.05Q230.72-17.9 230.47-18.68 230.22-19.45 229.02-19.5L229.02-19.5 229.02-19.95 234.02-21.55 234.02-18.8Q234.37-19.2 234.92-19.68 235.47-20.15 236.25-20.58 237.02-21 238.05-21.28 239.07-21.55 240.47-21.55L240.47-21.55Q242.82-21.55 244.47-20.75 246.12-19.95 247.17-18.68 248.22-17.4 248.7-15.88 249.17-14.35 249.17-12.9L249.17-12.9ZM266.17-19.3L260.57-19.3 260.57-7.25Q260.57-5.95 260.62-4.9 260.67-3.85 260.87-3.15 261.07-2.45 261.47-2.08 261.87-1.7 262.57-1.7L262.57-1.7Q263.62-1.7 264.55-2.7 265.47-3.7 265.72-5.1L265.72-5.1 266.17-5.1 266.17-1.45Q265.72-1.45 265.42-1.15L265.42-1.15Q265.02-0.8 264.3-0.4 263.57 0 262.12 0L262.12 0Q260.32 0 259.32-0.7 258.32-1.4 257.87-2.55 257.42-3.7 257.35-5.1 257.27-6.5 257.27-7.95L257.27-7.95 257.27-19.3 254.47-19.3 254.47-21 257.27-21 257.27-25.45Q257.27-26.3 257.05-27.03 256.82-27.75 255.57-27.8L255.57-27.8 255.57-28.3 260.57-29.9 260.57-21 266.17-21 266.17-19.3ZM282.92 0L282.92-0.5 283.17-0.5Q283.57-0.5 283.87-0.78 284.17-1.05 284.39-1.45 284.62-1.85 284.74-2.3 284.87-2.75 284.87-3.15L284.87-3.15 284.87-29.9Q284.87-30.25 284.74-30.7 284.62-31.15 284.39-31.55 284.17-31.95 283.87-32.23 283.57-32.5 283.17-32.5L283.17-32.5 282.92-32.5 282.92-33 290.12-33 290.12-32.5 289.87-32.5Q289.47-32.5 289.17-32.23 288.87-31.95 288.67-31.55 288.47-31.15 288.34-30.7 288.22-30.25 288.22-29.9L288.22-29.9 288.22-1.85 299.17-1.85Q300.12-1.85 300.82-2.3 301.52-2.75 301.99-3.43 302.47-4.1 302.69-4.88 302.92-5.65 302.92-6.3L302.92-6.3 303.42-6.3 303.42 0 282.92 0ZM313.36 0L306.86 0 306.86-0.5Q307.26-0.5 307.56-0.8 307.86-1.1 308.06-1.5 308.26-1.9 308.36-2.38 308.46-2.85 308.46-3.25L308.46-3.25 308.46-17.1Q308.46-17.95 308.21-18.73 307.96-19.5 306.76-19.55L306.76-19.55 306.76-20 311.76-21.6 311.76-3.25Q311.76-2.85 311.86-2.38 311.96-1.9 312.16-1.5 312.36-1.1 312.66-0.8 312.96-0.5 313.36-0.5L313.36-0.5 313.36 0ZM307.11-26.4L307.11-26.4Q307.11-27.4 307.79-28.1 308.46-28.8 309.46-28.8L309.46-28.8Q310.46-28.8 311.16-28.1 311.86-27.4 311.86-26.4L311.86-26.4Q311.86-25.4 311.16-24.75 310.46-24.1 309.46-24.1L309.46-24.1Q308.46-24.1 307.79-24.75 307.11-25.4 307.11-26.4ZM329.41-21.35L329.41-21.35Q332.11-21.35 334.09-20.45 336.06-19.55 337.36-18.05 338.66-16.55 339.31-14.63 339.96-12.7 339.96-10.7L339.96-10.7Q339.96-8.65 339.31-6.68 338.66-4.7 337.34-3.13 336.01-1.55 334.06-0.6 332.11 0.35 329.56 0.35L329.56 0.35Q327.66 0.35 326.11-0.43 324.56-1.2 323.66-2.3L323.66-2.3 323.66 0 318.76 0 318.76-0.5Q319.11-0.5 319.41-0.8 319.71-1.1 319.94-1.5 320.16-1.9 320.26-2.38 320.36-2.85 320.36-3.25L320.36-3.25 320.36-28.75Q320.36-29.6 320.11-30.35 319.86-31.1 318.66-31.15L318.66-31.15 318.66-31.65 323.66-33.2 323.66-18.9Q324.81-20.05 326.39-20.7 327.96-21.35 329.41-21.35ZM329.91-1.35L329.91-1.35Q331.71-1.45 333.01-2.23 334.31-3 335.19-4.2 336.06-5.4 336.49-6.93 336.91-8.45 336.91-10.05L336.91-10.05Q336.91-11.85 336.41-13.55 335.91-15.25 334.94-16.6 333.96-17.95 332.51-18.78 331.06-19.6 329.21-19.6L329.21-19.6Q328.16-19.6 327.16-19.13 326.16-18.65 325.39-17.88 324.61-17.1 324.14-16.03 323.66-14.95 323.66-13.75L323.66-13.75 323.66-7.55Q323.66-6.1 324.21-4.95 324.76-3.8 325.66-3 326.56-2.2 327.69-1.78 328.81-1.35 329.91-1.35ZM358.11-20.4L356.61-17.35Q356.01-18.35 355.36-18.6 354.71-18.85 353.86-18.85L353.86-18.85Q353.31-18.85 352.68-18.6 352.06-18.35 351.46-17.95 350.86-17.55 350.28-17.07 349.71-16.6 349.31-16.2L349.31-16.2 349.31-3.2Q349.31-2.8 349.41-2.35 349.51-1.9 349.73-1.48 349.96-1.05 350.23-0.78 350.51-0.5 350.91-0.5L350.91-0.5 350.91 0 344.41 0 344.41-0.5Q344.76-0.5 345.06-0.78 345.36-1.05 345.58-1.48 345.81-1.9 345.91-2.35 346.01-2.8 346.01-3.2L346.01-3.2 346.01-17.15Q346.01-17.85 345.56-18.55 345.11-19.25 344.26-19.45L344.26-19.45 344.26-19.85 349.31-21.35 349.31-18.35Q349.76-18.9 350.26-19.43 350.76-19.95 351.38-20.38 352.01-20.8 352.76-21.08 353.51-21.35 354.51-21.35L354.51-21.35Q355.21-21.35 356.31-21.05 357.41-20.75 358.11-20.4L358.11-20.4ZM379.31 0L374.46 0 374.46-2.55 374.21-2.3Q372.96-1.05 371.33-0.35 369.71 0.35 367.41 0.35L367.41 0.35Q365.66 0.35 364.41-0.05 363.16-0.45 362.36-1.18 361.56-1.9 361.18-2.85 360.81-3.8 360.81-4.85L360.81-4.85Q360.81-6.55 361.73-7.85 362.66-9.15 364.41-10.15 366.16-11.15 368.68-11.98 371.21-12.8 374.46-13.6L374.46-13.6Q374.36-15.55 373.66-16.75 372.96-17.95 372.01-18.63 371.06-19.3 370.01-19.53 368.96-19.75 368.21-19.75L368.21-19.75Q366.91-19.75 365.93-19.35 364.96-18.95 364.23-18.32 363.51-17.7 363.01-16.98 362.51-16.25 362.21-15.6L362.21-15.6 361.76-15.6 361.76-19.25Q362.16-19.3 362.51-19.5 362.86-19.7 363.36-19.9L363.36-19.9Q364.11-20.2 365.41-20.78 366.71-21.35 369.06-21.35L369.06-21.35Q371.81-21.35 373.51-20.65 375.21-19.95 376.13-18.8 377.06-17.65 377.36-16.18 377.66-14.7 377.66-13.15L377.66-13.15 377.66-3.25Q377.66-2.25 378.11-1.38 378.56-0.5 379.31-0.5L379.31-0.5 379.31 0ZM373.91-4.15L374.46-4.75 374.46-11.9 373.96-11.8Q372.76-11.5 371.03-11 369.31-10.5 367.76-9.7 366.21-8.9 365.11-7.8 364.01-6.7 364.01-5.25L364.01-5.25Q364.01-3.65 365.31-2.6 366.61-1.55 368.71-1.55L368.71-1.55Q370.36-1.55 371.61-2.27 372.86-3 373.91-4.15L373.91-4.15ZM397.8-20.4L396.3-17.35Q395.7-18.35 395.05-18.6 394.4-18.85 393.55-18.85L393.55-18.85Q393-18.85 392.38-18.6 391.75-18.35 391.15-17.95 390.55-17.55 389.98-17.07 389.4-16.6 389-16.2L389-16.2 389-3.2Q389-2.8 389.1-2.35 389.2-1.9 389.43-1.48 389.65-1.05 389.93-0.78 390.2-0.5 390.6-0.5L390.6-0.5 390.6 0 384.1 0 384.1-0.5Q384.45-0.5 384.75-0.78 385.05-1.05 385.28-1.48 385.5-1.9 385.6-2.35 385.7-2.8 385.7-3.2L385.7-3.2 385.7-17.15Q385.7-17.85 385.25-18.55 384.8-19.25 383.95-19.45L383.95-19.45 383.95-19.85 389-21.35 389-18.35Q389.45-18.9 389.95-19.43 390.45-19.95 391.08-20.38 391.7-20.8 392.45-21.08 393.2-21.35 394.2-21.35L394.2-21.35Q394.9-21.35 396-21.05 397.1-20.75 397.8-20.4L397.8-20.4ZM419.25-18.3L408.95 7.15Q408.25 9.25 407.18 10 406.1 10.75 404.95 10.75L404.95 10.75Q404.2 10.75 403.63 10.55 403.05 10.35 402.63 10.08 402.2 9.8 401.95 9.55 401.7 9.3 401.65 9.15L401.65 9.15 403.3 5.1Q403.55 6 403.8 6.45L403.8 6.45Q404.05 6.95 404.5 7.35 404.95 7.75 405.6 7.75L405.6 7.75Q406.8 7.75 407.5 6L407.5 6 409.95-0.15 401.9-18.35Q401.65-18.95 401.08-19.73 400.5-20.5 399.5-20.5L399.5-20.5 399.5-21 406.1-21 406.1-20.5Q405.9-20.5 405.6-20.15 405.3-19.8 405.3-19.25L405.3-19.25Q405.3-18.8 405.5-18.45L405.5-18.45 411.65-4.3 417.55-18.75Q417.7-19.1 417.7-19.4L417.7-19.4Q417.7-19.9 417.38-20.2 417.05-20.5 416.7-20.5L416.7-20.5 416.7-21 421.55-21 421.55-20.5Q420.75-20.5 420.18-19.83 419.6-19.15 419.25-18.3L419.25-18.3Z" opacity="1" transform="matrix(1,0,0,1,0,0)" fill="#6f605b" class="wordmark-text-0" data-fill-palette-color="primary" id="text-0"></path></svg></g></svg></g><g transform="matrix(1,0,0,1,0,51.532885883182466)"><svg viewBox="0 0 232.209792 18.89270198531996" height="18.89270198531996" width="232.209792"><g transform="matrix(1,0,0,1,0,0)"><svg width="232.209792" viewBox="0.25317463278770447 -39.04999923706055 483.6068115234375 39.349998474121094" height="18.89270198531996" data-palette-color="#f36527"><path d="M16.2 0L16.2 0Q15.4 0 14.83-0.58 14.25-1.15 14.25-1.95L14.25-1.95 14.25-14.45 0.65-36Q0.15-36.75 0.28-37.45 0.4-38.15 0.9-38.6 1.4-39.05 2.15-39.05L2.15-39.05Q2.75-39.05 3.13-38.8 3.5-38.55 3.8-38.1L3.8-38.1 17.3-16.35 15.2-16.35 28.65-38Q29-38.55 29.43-38.8 29.85-39.05 30.45-39.05L30.45-39.05Q31.15-39.05 31.63-38.58 32.1-38.1 32.18-37.4 32.25-36.7 31.8-36L31.8-36 18.15-14.45 18.15-1.95Q18.15-1.15 17.57-0.58 17 0 16.2 0ZM44.35 0.25L44.35 0.25Q40.35 0.25 37.2-1.55 34.05-3.35 32.25-6.5 30.45-9.65 30.45-13.65L30.45-13.65Q30.45-17.7 32.25-20.85 34.05-24 37.2-25.8 40.35-27.6 44.35-27.6L44.35-27.6Q48.35-27.6 51.47-25.8 54.6-24 56.4-20.85 58.2-17.7 58.25-13.65L58.25-13.65Q58.25-9.65 56.42-6.5 54.6-3.35 51.47-1.55 48.35 0.25 44.35 0.25ZM44.35-3.25L44.35-3.25Q47.25-3.25 49.55-4.6 51.85-5.95 53.15-8.3 54.45-10.65 54.45-13.65L54.45-13.65Q54.45-16.65 53.15-19.03 51.85-21.4 49.55-22.75 47.25-24.1 44.35-24.1L44.35-24.1Q41.45-24.1 39.15-22.75 36.85-21.4 35.52-19.03 34.2-16.65 34.2-13.65L34.2-13.65Q34.2-10.65 35.52-8.3 36.85-5.95 39.15-4.6 41.45-3.25 44.35-3.25ZM77.65 0.3L77.65 0.3Q74.09 0.3 71.3-1.18 68.5-2.65 66.87-5.5 65.25-8.35 65.25-12.45L65.25-12.45 65.25-25.45Q65.25-26.25 65.8-26.8 66.34-27.35 67.15-27.35L67.15-27.35Q68-27.35 68.55-26.8 69.09-26.25 69.09-25.45L69.09-25.45 69.09-12.45Q69.09-9.35 70.27-7.35 71.45-5.35 73.47-4.35 75.5-3.35 78.05-3.35L78.05-3.35Q80.5-3.35 82.47-4.3 84.45-5.25 85.59-6.9 86.75-8.55 86.75-10.65L86.75-10.65 89.5-10.65Q89.34-7.5 87.77-5.03 86.2-2.55 83.55-1.13 80.9 0.3 77.65 0.3ZM88.65 0L88.65 0Q87.8 0 87.27-0.53 86.75-1.05 86.75-1.95L86.75-1.95 86.75-25.45Q86.75-26.3 87.27-26.83 87.8-27.35 88.65-27.35L88.65-27.35Q89.5-27.35 90.05-26.83 90.59-26.3 90.59-25.45L90.59-25.45 90.59-1.95Q90.59-1.05 90.05-0.53 89.5 0 88.65 0ZM103.39-16.85L101.19-16.85Q101.34-19.95 102.82-22.4 104.29-24.85 106.67-26.25 109.04-27.65 111.94-27.65L111.94-27.65Q114.24-27.65 115.49-27 116.74-26.35 116.44-25.1L116.44-25.1Q116.24-24.35 115.77-24.1 115.29-23.85 114.62-23.9 113.94-23.95 113.09-24L113.09-24Q110.29-24.25 108.12-23.43 105.94-22.6 104.67-20.9 103.39-19.2 103.39-16.85L103.39-16.85ZM101.49 0L101.49 0Q100.59 0 100.09-0.5 99.59-1 99.59-1.9L99.59-1.9 99.59-25.45Q99.59-26.35 100.09-26.85 100.59-27.35 101.49-27.35L101.49-27.35Q102.39-27.35 102.89-26.85 103.39-26.35 103.39-25.45L103.39-25.45 103.39-1.9Q103.39-1 102.89-0.5 102.39 0 101.49 0ZM139.59 0L139.59 0Q138.74 0 138.19-0.55 137.64-1.1 137.64-1.95L137.64-1.95 137.64-37.1Q137.64-37.95 138.19-38.5 138.74-39.05 139.59-39.05L139.59-39.05 149.59-39.05Q153.29-39.05 156.14-37.43 158.99-35.8 160.59-32.95 162.19-30.1 162.19-26.35L162.19-26.35Q162.19-22.7 160.59-19.88 158.99-17.05 156.14-15.43 153.29-13.8 149.59-13.8L149.59-13.8 141.54-13.8 141.54-1.95Q141.54-1.1 140.99-0.55 140.44 0 139.59 0ZM141.54-35.3L141.54-17.55 149.59-17.55Q152.14-17.55 154.14-18.68 156.14-19.8 157.26-21.8 158.39-23.8 158.39-26.35L158.39-26.35Q158.39-29 157.26-31 156.14-33 154.14-34.15 152.14-35.3 149.59-35.3L149.59-35.3 141.54-35.3ZM174.29 0L173.64 0Q171.64 0 170.06-1.1 168.49-2.2 167.61-4.15 166.74-6.1 166.74-8.65L166.74-8.65 166.74-37.15Q166.74-38 167.26-38.53 167.79-39.05 168.64-39.05L168.64-39.05Q169.49-39.05 170.01-38.53 170.54-38 170.54-37.15L170.54-37.15 170.54-8.65Q170.54-6.5 171.41-5.15 172.29-3.8 173.64-3.8L173.64-3.8 174.89-3.8Q175.64-3.8 176.09-3.28 176.54-2.75 176.54-1.9L176.54-1.9Q176.54-1.05 175.91-0.53 175.29 0 174.29 0L174.29 0ZM192.38 0.25L192.38 0.25Q188.53 0.25 185.48-1.58 182.43-3.4 180.66-6.55 178.88-9.7 178.88-13.65L178.88-13.65Q178.88-17.65 180.71-20.8 182.53-23.95 185.68-25.78 188.83-27.6 192.78-27.6L192.78-27.6Q196.73-27.6 199.86-25.78 202.98-23.95 204.81-20.8 206.63-17.65 206.68-13.65L206.68-13.65 205.13-12.45Q205.13-8.85 203.46-5.98 201.78-3.1 198.91-1.43 196.03 0.25 192.38 0.25ZM192.78-3.25L192.78-3.25Q195.68-3.25 197.96-4.6 200.23-5.95 201.56-8.33 202.88-10.7 202.88-13.65L202.88-13.65Q202.88-16.65 201.56-19 200.23-21.35 197.96-22.73 195.68-24.1 192.78-24.1L192.78-24.1Q189.93-24.1 187.63-22.73 185.33-21.35 183.98-19 182.63-16.65 182.63-13.65L182.63-13.65Q182.63-10.7 183.98-8.33 185.33-5.95 187.63-4.6 189.93-3.25 192.78-3.25ZM204.73 0L204.73 0Q203.88 0 203.33-0.53 202.78-1.05 202.78-1.9L202.78-1.9 202.78-10.45 203.73-14.4 206.68-13.65 206.68-1.9Q206.68-1.05 206.13-0.53 205.58 0 204.73 0ZM226.38 0.25L226.38 0.25Q222.43 0.25 219.36-1.58 216.28-3.4 214.5-6.55 212.73-9.7 212.73-13.65L212.73-13.65Q212.73-17.65 214.43-20.8 216.13-23.95 219.08-25.78 222.03-27.6 225.88-27.6L225.88-27.6Q228.93-27.6 231.5-26.4 234.08-25.2 236.03-22.8L236.03-22.8Q236.58-22.2 236.43-21.53 236.28-20.85 235.58-20.35L235.58-20.35Q235.03-19.95 234.36-20.08 233.68-20.2 233.18-20.8L233.18-20.8Q230.28-24.1 225.88-24.1L225.88-24.1Q223.08-24.1 220.96-22.75 218.83-21.4 217.66-19.05 216.48-16.7 216.48-13.65L216.48-13.65Q216.48-10.65 217.73-8.3 218.98-5.95 221.23-4.6 223.48-3.25 226.38-3.25L226.38-3.25Q228.33-3.25 229.96-3.78 231.58-4.3 232.83-5.4L232.83-5.4Q233.43-5.9 234.08-5.95 234.73-6 235.28-5.55L235.28-5.55Q235.88-5 235.96-4.3 236.03-3.6 235.48-3.1L235.48-3.1Q231.83 0.25 226.38 0.25ZM256.38 0.25L256.38 0.25Q252.33 0.25 249.2-1.53 246.08-3.3 244.3-6.45 242.53-9.6 242.53-13.65L242.53-13.65Q242.53-17.75 244.2-20.88 245.88-24 248.83-25.8 251.78-27.6 255.63-27.6L255.63-27.6Q259.43-27.6 262.25-25.88 265.08-24.15 266.63-21.1 268.18-18.05 268.18-14.15L268.18-14.15Q268.18-13.35 267.68-12.88 267.18-12.4 266.38-12.4L266.38-12.4 245.13-12.4 245.13-15.6 266.78-15.6 264.63-14.05Q264.68-16.95 263.58-19.25 262.48-21.55 260.45-22.85 258.43-24.15 255.63-24.15L255.63-24.15Q252.78-24.15 250.63-22.8 248.48-21.45 247.3-19.07 246.13-16.7 246.13-13.65L246.13-13.65Q246.13-10.6 247.45-8.25 248.78-5.9 251.08-4.55 253.38-3.2 256.38-3.2L256.38-3.2Q258.18-3.2 260-3.83 261.83-4.45 262.93-5.4L262.93-5.4Q263.48-5.85 264.18-5.88 264.88-5.9 265.38-5.5L265.38-5.5Q266.03-4.9 266.05-4.2 266.08-3.5 265.48-3L265.48-3Q263.83-1.6 261.28-0.68 258.73 0.25 256.38 0.25ZM301.17 0L301.17 0Q300.37 0 299.8-0.58 299.22-1.15 299.22-1.95L299.22-1.95 299.22-39.05 303.12-39.05 303.12-1.95Q303.12-1.15 302.57-0.58 302.02 0 301.17 0ZM315.02-35.5L287.37-35.5Q286.57-35.5 286.07-36 285.57-36.5 285.57-37.25L285.57-37.25Q285.57-38.05 286.07-38.55 286.57-39.05 287.37-39.05L287.37-39.05 315.02-39.05Q315.82-39.05 316.32-38.55 316.82-38.05 316.82-37.25L316.82-37.25Q316.82-36.5 316.32-36 315.82-35.5 315.02-35.5L315.02-35.5ZM327.02 0.25L327.02 0.25Q323.02 0.25 319.87-1.55 316.72-3.35 314.92-6.5 313.12-9.65 313.12-13.65L313.12-13.65Q313.12-17.7 314.92-20.85 316.72-24 319.87-25.8 323.02-27.6 327.02-27.6L327.02-27.6Q331.02-27.6 334.14-25.8 337.27-24 339.07-20.85 340.87-17.7 340.92-13.65L340.92-13.65Q340.92-9.65 339.09-6.5 337.27-3.35 334.14-1.55 331.02 0.25 327.02 0.25ZM327.02-3.25L327.02-3.25Q329.92-3.25 332.22-4.6 334.52-5.95 335.82-8.3 337.12-10.65 337.12-13.65L337.12-13.65Q337.12-16.65 335.82-19.03 334.52-21.4 332.22-22.75 329.92-24.1 327.02-24.1L327.02-24.1Q324.12-24.1 321.82-22.75 319.52-21.4 318.19-19.03 316.87-16.65 316.87-13.65L316.87-13.65Q316.87-10.65 318.19-8.3 319.52-5.95 321.82-4.6 324.12-3.25 327.02-3.25ZM365.51 0L365.51 0Q364.67 0 364.12-0.55 363.56-1.1 363.56-1.95L363.56-1.95 363.56-37.1Q363.56-37.95 364.12-38.5 364.67-39.05 365.51-39.05L365.51-39.05 374.87-39.05Q378.51-39.05 381.37-37.52 384.21-36 385.84-33.27 387.46-30.55 387.46-27L387.46-27Q387.46-23.6 385.84-20.95 384.21-18.3 381.37-16.8 378.51-15.3 374.87-15.3L374.87-15.3 367.46-15.3 367.46-1.95Q367.46-1.1 366.92-0.55 366.37 0 365.51 0ZM386.42 0L386.42 0Q385.76 0 385.39-0.25 385.01-0.5 384.71-1L384.71-1 375.12-16.3 379.01-17.3 387.96-3Q388.71-1.8 388.24-0.9 387.76 0 386.42 0ZM367.46-35.3L367.46-19.05 374.87-19.05Q377.42-19.05 379.39-20.08 381.37-21.1 382.51-22.9 383.67-24.7 383.67-27L383.67-27Q383.67-29.45 382.51-31.33 381.37-33.2 379.39-34.25 377.42-35.3 374.87-35.3L374.87-35.3 367.46-35.3ZM406.36 0.25L406.36 0.25Q402.31 0.25 399.19-1.53 396.06-3.3 394.29-6.45 392.51-9.6 392.51-13.65L392.51-13.65Q392.51-17.75 394.19-20.88 395.86-24 398.81-25.8 401.76-27.6 405.61-27.6L405.61-27.6Q409.41-27.6 412.24-25.88 415.06-24.15 416.61-21.1 418.16-18.05 418.16-14.15L418.16-14.15Q418.16-13.35 417.66-12.88 417.16-12.4 416.36-12.4L416.36-12.4 395.11-12.4 395.11-15.6 416.76-15.6 414.61-14.05Q414.66-16.95 413.56-19.25 412.46-21.55 410.44-22.85 408.41-24.15 405.61-24.15L405.61-24.15Q402.76-24.15 400.61-22.8 398.46-21.45 397.29-19.07 396.11-16.7 396.11-13.65L396.11-13.65Q396.11-10.6 397.44-8.25 398.76-5.9 401.06-4.55 403.36-3.2 406.36-3.2L406.36-3.2Q408.16-3.2 409.99-3.83 411.81-4.45 412.91-5.4L412.91-5.4Q413.46-5.85 414.16-5.88 414.86-5.9 415.36-5.5L415.36-5.5Q416.01-4.9 416.04-4.2 416.06-3.5 415.46-3L415.46-3Q413.81-1.6 411.26-0.68 408.71 0.25 406.36 0.25ZM435.71 0.25L435.71 0.25Q431.86 0.25 428.81-1.58 425.76-3.4 423.98-6.55 422.21-9.7 422.21-13.65L422.21-13.65Q422.21-17.65 424.03-20.8 425.86-23.95 429.01-25.78 432.16-27.6 436.11-27.6L436.11-27.6Q440.06-27.6 443.18-25.78 446.31-23.95 448.13-20.8 449.96-17.65 450.01-13.65L450.01-13.65 448.46-12.45Q448.46-8.85 446.78-5.98 445.11-3.1 442.23-1.43 439.36 0.25 435.71 0.25ZM436.11-3.25L436.11-3.25Q439.01-3.25 441.28-4.6 443.56-5.95 444.88-8.33 446.21-10.7 446.21-13.65L446.21-13.65Q446.21-16.65 444.88-19 443.56-21.35 441.28-22.73 439.01-24.1 436.11-24.1L436.11-24.1Q433.26-24.1 430.96-22.73 428.66-21.35 427.31-19 425.96-16.65 425.96-13.65L425.96-13.65Q425.96-10.7 427.31-8.33 428.66-5.95 430.96-4.6 433.26-3.25 436.11-3.25ZM448.06 0L448.06 0Q447.21 0 446.66-0.53 446.11-1.05 446.11-1.9L446.11-1.9 446.11-10.45 447.06-14.4 450.01-13.65 450.01-1.9Q450.01-1.05 449.46-0.53 448.91 0 448.06 0ZM469.96 0.25L469.96 0.25Q466.01 0.25 462.86-1.58 459.71-3.4 457.88-6.55 456.06-9.7 456.06-13.7L456.06-13.7Q456.06-17.65 457.83-20.8 459.61-23.95 462.66-25.78 465.71-27.6 469.56-27.6L469.56-27.6Q472.91-27.6 475.61-26.18 478.31-24.75 479.96-22.4L479.96-22.4 479.96-37.1Q479.96-38 480.51-38.53 481.06-39.05 481.91-39.05L481.91-39.05Q482.76-39.05 483.31-38.53 483.86-38 483.86-37.1L483.86-37.1 483.86-13.5Q483.76-9.6 481.93-6.48 480.11-3.35 476.98-1.55 473.86 0.25 469.96 0.25ZM469.96-3.25L469.96-3.25Q472.86-3.25 475.13-4.63 477.41-6 478.73-8.35 480.06-10.7 480.06-13.7L480.06-13.7Q480.06-16.65 478.73-19.03 477.41-21.4 475.13-22.75 472.86-24.1 469.96-24.1L469.96-24.1Q467.11-24.1 464.81-22.75 462.51-21.4 461.16-19.03 459.81-16.65 459.81-13.7L459.81-13.7Q459.81-10.7 461.16-8.35 462.51-6 464.81-4.63 467.11-3.25 469.96-3.25Z" opacity="1" transform="matrix(1,0,0,1,0,0)" fill="#f36527" class="slogan-text-1" data-fill-palette-color="secondary" id="text-1"></path></svg></g></svg></g></svg></g></svg></g><g><svg viewBox="0 0 74.4971389032837 97.32816243427035" height="97.32816243427035" width="74.4971389032837"><g><svg xmlns="http://www.w3.org/2000/svg" xmlns:xlink="http://www.w3.org/1999/xlink" version="1.1" x="0" y="0" viewBox="15.555999755859375 5 68.88800048828125 90" enable-background="new 0 0 100 100" xml:space="preserve" height="97.32816243427035" width="74.4971389032837" class="icon-icon-0" data-fill-palette-color="accent" id="icon-0"><g fill="#f36527" data-fill-palette-color="accent"><path fill-rule="evenodd" clip-rule="evenodd" d="M50 50.556l-13.471-5.214c2.151-5.563 7.507-9.231 13.471-9.231s11.319 3.668 13.471 9.231L50 50.556z" fill="#f36527" data-fill-palette-color="accent"></path><polygon fill-rule="evenodd" clip-rule="evenodd" points="50,52.778 84.444,39.445 84.444,81.667 50,95 15.556,81.667    15.556,39.445  " fill="#f36527" data-fill-palette-color="accent"></polygon><path fill-rule="evenodd" clip-rule="evenodd" d="M49.998 5c7.977 0 14.444 6.468 14.444 14.445 0 7.976-6.468 14.444-14.444 14.444-7.976 0-14.444-6.468-14.444-14.444C35.554 11.468 42.022 5 49.998 5" fill="#f36527" data-fill-palette-color="accent"></path></g></svg></g></svg></g></svg></g><defs></defs></svg>